PathFileType	4	(X/Y/Z)	/Users/niels/Desktop/University/Third Semester/Perception and Action/Exam/Gymnastics Motion Tracking/Code for Gym Tracking/Analyzed Data/Webcam_Backflip/id4_1_trajectory_Sports2D/id4_1_trajectory_Sports2D_px_person00.trc
DataRate	CameraRate	NumFrames	NumMarkers	Units	OrigDataRate	OrigDataStartFrame	OrigNumFrames
29.702970297029704	29.702970297029704	11	22	m	29.702970297029704	0	101
Frame#	Time	Hip			RHip			RKnee			RAnkle			RBigToe			RSmallToe			RHeel			LHip			LKnee			LAnkle			LBigToe			LSmallToe			LHeel			Neck			Head			Nose			RShoulder			RElbow			RWrist			LShoulder			LElbow			LWrist		
		X1	Y1	Z1	X2	Y2	Z2	X3	Y3	Z3	X4	Y4	Z4	X5	Y5	Z5	X6	Y6	Z6	X7	Y7	Z7	X8	Y8	Z8	X9	Y9	Z9	X10	Y10	Z10	X11	Y11	Z11	X12	Y12	Z12	X13	Y13	Z13	X14	Y14	Z14	X15	Y15	Z15	X16	Y16	Z16	X17	Y17	Z17	X18	Y18	Z18	X19	Y19	Z19	X20	Y20	Z20	X21	Y21	Z21	X22	Y22	Z22
0	0.0	0.9276439508169338	-0.6687611055825885	0.0	0.9218626207396264	-0.6716512619234096	0.0	1.0070674949101492	-0.7653739131966223	0.0	0.9595663128282285	-0.8898158901784645	0.0	1.0001951722510767	-0.9113706162075026	0.0	0.991543808548956	-0.9172060355248001	0.0	0.9422641602750857	-0.9028580749574798	0.0	0.9420920224084629	-0.6658624976316282	0.0	1.0113461592433142	-0.7552706507717447	0.0	0.9653481238084878	-0.8839903489343164	0.0	1.0175754225806073	-0.9041125734575752	0.0	1.0132151456797633	-0.9012301980281545	0.0	0.9408121391934844	-0.902832906411271	0.0	1.0071827581029	-0.5139001072910238	0.0	1.0434004929338305	-0.4371869625820475	0.0	1.0506676858455668	-0.473354756793482	0.0	0.9869570102341514	-0.53995835249862	0.0	0.9581019941663408	-0.6253482962278739	0.0	0.9740804601887267	-0.7092648210015282	0.0	0.9999390349987758	-0.5356122171846268	0.0	0.9912720175340722	-0.6282094887428783	0.0	1.0246194844903678	-0.7005579305522536	0.0
1	0.033666666666666664	0.9361937037397272	-0.691161193900802	0.0	0.9279593214496789	-0.6941437196759986	0.0	0.9976174618309482	-0.7934732968235956	0.0	0.957905510072293	-0.9153536207277715	0.0	1.0038598056240842	-0.9317920475381914	0.0	0.9929465004504323	-0.9394776964215559	0.0	0.9416896343435786	-0.9273225656514077	0.0	0.9511270261308475	-0.6897231558781926	0.0	1.008755768759147	-0.7848390338102966	0.0	0.9690725017244292	-0.9069562534541286	0.0	1.0207401798739408	-0.9235025491350974	0.0	1.0132766063302896	-0.9207848420771138	0.0	0.9448019711821173	-0.923271311405482	0.0	0.9964499638466678	-0.5245162437716794	0.0	1.0193180689971038	-0.44578667438420994	0.0	1.0353064236349596	-0.48197521478292565	0.0	0.9779368633300595	-0.5491063226174611	0.0	0.9820525290650238	-0.6182758764601629	0.0	1.0196810645429615	-0.6662893518429434	0.0	0.9968347417278205	-0.5464447112313942	0.0	1.012741833911849	-0.6148819798461096	0.0	1.0567797407540436	-0.6512054499062089	0.0
2	0.06733333333333333	0.9449212057146383	-0.7082435349973628	0.0	0.9347488386457706	-0.7112228317148096	0.0	0.9883189135761906	-0.8168023933577497	0.0	0.9563861761961701	-0.9367703731724185	0.0	1.0055658675275363	-0.9491529458569232	0.0	0.9928366433913433	-0.9581234438297275	0.0	0.9411469628526001	-0.9478140930363784	0.0	0.9601243406578074	-0.7080027400835537	0.0	1.005815771914512	-0.8094916728428996	0.0	0.9721870194878012	-0.9265262424888993	0.0	1.0226152870640428	-0.9402071939216261	0.0	1.0126511048953137	-0.9374344552881261	0.0	0.9487447725332522	-0.9404458796292372	0.0	0.9861671968894288	-0.5319008350388456	0.0	0.9959005928563116	-0.4519424927873448	0.0	1.0201965554669197	-0.4875210286405206	0.0	0.9696879258042843	-0.5543543930637552	0.0	1.000751416654746	-0.6037274423543869	0.0	1.0525237162425756	-0.6176577481185416	0.0	0.9933060444661076	-0.5529434348081649	0.0	1.0288398813810113	-0.5969526780781202	0.0	1.0778885945334868	-0.6002497911893938	0.0
3	0.10099999999999999	0.9538117859337211	-0.7154118616215573	0.0	0.9425868382795888	-0.7182100954926013	0.0	0.9801454031898844	-0.8308175193767949	0.0	0.9554110879521149	-0.9502148595425651	0.0	1.0045184499526225	-0.9603287989706802	0.0	0.9909587762564188	-0.9696772294626388	0.0	0.940958901921755	-0.9606695112464833	0.0	0.9688860713915001	-0.7159653926489528	0.0	1.0025744341266802	-0.8247181437248161	0.0	0.9742542204962998	-0.9393167923867934	0.0	1.0223739751195249	-0.9516154239565946	0.0	1.0110512104710767	-0.9485650759731347	0.0	0.9524273087081089	-0.9513481948544427	0.0	0.9764146534937159	-0.5331453174385216	0.0	0.9735119536386735	-0.4532223678332362	0.0	1.0051199332914489	-0.4872032622771705	0.0	0.9623341209032681	-0.5522984615013792	0.0	1.0098541824906295	-0.5771839455455663	0.0	1.064134847259606	-0.5617258813214422	0.0	0.9888664576946427	-0.5517200002260784	0.0	1.0359892272295426	-0.5715390925452549	0.0	1.0811212669567163	-0.5478392139322573	0.0
4	0.13466666666666666	0.9626559164292846	-0.7098804830380863	0.0	0.9513491232492752	-0.7123319716008677	0.0	0.9748402597588144	-0.8324092323152902	0.0	0.9554984064539953	-0.953082344369165	0.0	1.0011063561614906	-0.9632105575363052	0.0	0.988119990504091	-0.9719968880264668	0.0	0.9416416368714411	-0.963454835214067	0.0	0.9770086031413693	-0.7108610126730978	0.0	0.9997039436484131	-0.8275641853138704	0.0	0.9750997694172194	-0.9428983357678187	0.0	1.019788237251652	-0.955866546911388	0.0	1.0084668207922043	-0.9525944892557865	0.0	0.9554073758203184	-0.953898861179067	0.0	0.9668365319491922	-0.526397577325774	0.0	0.9519903946867407	-0.4478554893824271	0.0	0.9893329033941951	-0.47915873264638215	0.0	0.9552702471857631	-0.5409755274190045	0.0	1.00693850453587	-0.5386308733990263	0.0	1.0528504653724375	-0.5015402533347963	0.0	0.9830369976090936	-0.5411987885344055	0.0	1.0332829246699962	-0.5382663726086144	0.0	1.0658774035032426	-0.4957798551162651	0.0
5	0.16833333333333333	0.9710356522654637	-0.6911450393615124	0.0	0.9604320661199066	-0.6931655918906096	0.0	0.9745940959645134	-0.8202419590143301	0.0	0.9573228888260265	-0.9440371278177381	0.0	0.9967065966897188	-0.956725895776688	0.0	0.9855554509085427	-0.9642365394821633	0.0	0.9438939307507018	-0.9548181708466658	0.0	0.9838853662487205	-0.692349237140785	0.0	0.9988111676204655	-0.8167763496363994	0.0	0.9753267121881783	-0.9358091034487912	0.0	1.0156679039361423	-0.9516237208817773	0.0	1.0053490940506857	-0.948534338775164	0.0	0.9576586741458772	-0.9466508458384664	0.0	0.9566941821332487	-0.5113224317082108	0.0	0.9304853103428414	-0.4355089189510161	0.0	0.9717439981337366	-0.4629470322369549	0.0	0.9473412160115323	-0.5204509526272285	0.0	0.9921692200743357	-0.49195043800022337	0.0	1.0234319105542842	-0.44214404592149	0.0	0.9753663394314596	-0.5218273384010229	0.0	1.0223328476078497	-0.4991655729725229	0.0	1.0371512500046738	-0.44634517554404907	0.0
6	0.20199999999999999	0.9783342476161918	-0.6608648250669146	0.0	0.9689056664941755	-0.6623399554729866	0.0	0.9814646137936339	-0.794325569420792	0.0	0.9618396528975071	-0.9224244734417679	0.0	0.9935669969188707	-0.9400880901198649	0.0	0.9847090087688537	-0.945892329990397	0.0	0.9485909145195841	-0.9338909494023255	0.0	0.9888879407194231	-0.6622494290377969	0.0	1.0021383202677092	-0.7923488853506288	0.0	0.9765684902541074	-0.9169993306424682	0.0	1.0120504367773486	-0.9375449470059074	0.0	1.0030232383948017	-0.9351150420773904	0.0	0.9601793871555099	-0.9283337976422184	0.0	0.9451405015501726	-0.4891050430480827	0.0	0.9078807861353196	-0.4176140185538997	0.0	0.9514864441325754	-0.4397918896734775	0.0	0.9373435824516999	-0.49274255875338957	0.0	0.968277375417381	-0.44296361305270765	0.0	0.9841580178331686	-0.3877146903757804	0.0	0.9655372553051568	-0.4957101815202505	0.0	1.0064788541507923	-0.4581303651690733	0.0	1.00299274361084	-0.4016535138485493	0.0
7	0.23566666666666664	0.9837269613643258	-0.6222143392625696	0.0	0.9756883355586218	-0.6228529038002601	0.0	0.9965068136122714	-0.7552638790448614	0.0	0.970243478753075	-0.8876466439785647	0.0	0.9944755118996277	-0.9121925650708397	0.0	0.987440779008211	-0.9160335403642065	0.0	0.9567252780197478	-0.8999062991784673	0.0	0.9915550753931746	-0.6238315003281016	0.0	1.0116218652016369	-0.754815382786103	0.0	0.9810096568581099	-0.8853314351521463	0.0	1.0116438561550416	-0.9118498224629094	0.0	1.0037399346746836	-0.9102659747890889	0.0	0.9648185513068334	-0.897635917648564	0.0	0.9316501793496201	-0.46202632920445624	0.0	0.8835560926756488	-0.3970335267301629	0.0	0.9284315500648976	-0.4124144789819906	0.0	0.924580927878251	-0.4609610550915074	0.0	0.9399645860688877	-0.39738260756753596	0.0	0.9433501935461204	-0.3407367305136874	0.0	0.9535306604414919	-0.46585635287844834	0.0	0.9897882361934008	-0.41980202209532996	0.0	0.9715968888554775	-0.36348956252081105	0.0
8	0.2693333333333333	0.9863468415541471	-0.5791057339069408	0.0	0.9797995157549075	-0.5785270450463578	0.0	1.0186896228997184	-0.7039579700203609	0.0	0.9835427505601627	-0.8393921795773849	0.0	1.0020566408096463	-0.871635327170823	0.0	0.9959331377169388	-0.8734378245993042	0.0	0.9692353932201735	-0.8525598592979765	0.0	0.9917097766932326	-0.5810809614561993	0.0	1.02766007499692	-0.7048871530901952	0.0	0.990532193262788	-0.8398387059831401	0.0	1.0170264153771467	-0.8724570169113818	0.0	1.0101134230453435	-0.8715463897147611	0.0	0.9735492825391303	-0.8535744867916685	0.0	0.916414338395219	-0.4328936843514637	0.0	0.8579260032818102	-0.37705889412042615	0.0	0.9033574826598059	-0.3842666412530055	0.0	0.9091587993480106	-0.4282156555726583	0.0	0.9126965135455565	-0.3593675167751402	0.0	0.9074290768539721	-0.3024232057498642	0.0	0.9397875926352072	-0.4353977331471826	0.0	0.9758981727173055	-0.3879913092042138	0.0	0.9491066210761708	-0.3328409448097647	0.0
9	0.303	0.9858867688281499	-0.5357416642321451	0.0	0.9808718931877006	-0.5337237730112167	0.0	1.044160425098703	-0.6420125263826774	0.0	1.002006724331682	-0.7786352023087928	0.0	1.0181219988692498	-0.8172371320350968	0.0	1.0121677285521176	-0.8173962502309322	0.0	0.9868008744839446	-0.7929223986044376	0.0	0.989639713216629	-0.5382303447349857	0.0	1.0479972840908551	-0.6438426622937318	0.0	1.0060306353806803	-0.780642750887323	0.0	1.0302088454004847	-0.8176810961322987	0.0	1.0242878208979989	-0.8171992898866421	0.0	0.9878049580530953	-0.7963786449190349	0.0	0.9004262840459896	-0.4045496698789391	0.0	0.8324541965339282	-0.3601427111448132	0.0	0.8779436189355587	-0.35843698191867396	0.0	0.8920688322101955	-0.39714099383279916	0.0	0.8911039738914341	-0.3307628808446831	0.0	0.8807522623101224	-0.27285896706415924	0.0	0.9252630734340136	-0.40708780173962683	0.0	0.9669401338406808	-0.3644583967733079	0.0	0.9383514839785739	-0.30943522243619415	0.0
10	0.33666666666666667	0.983250961888065	-0.4961232457960559	0.0	0.9797219240418051	-0.4927148050360672	0.0	1.06692540760626	-0.572084128921428	0.0	1.024802244859071	-0.7079035538695663	0.0	1.0429320839109832	-0.7485527882498682	0.0	1.036972937094894	-0.7482025736999929	0.0	1.0095550407845577	-0.7235702893529955	0.0	0.9862805678462444	-0.49917615765563933	0.0	1.0674529511972195	-0.5742577124591405	0.0	1.0269047371402267	-0.7094870095214857	0.0	1.0519180292447097	-0.7469260510834849	0.0	1.0468392798743633	-0.746885555726241	0.0	1.0080406676418137	-0.7278794474379405	0.0	0.885096033611242	-0.3795333751643631	0.0	0.8092320761929849	-0.34737136270947705	0.0	0.8545567696115668	-0.33698116801765643	0.0	0.8751381020688171	-0.3700206646122502	0.0	0.8779660173862177	-0.31116684719635057	0.0	0.8659117688464156	-0.25099255662724773	0.0	0.9111853661230596	-0.38310589017340235	0.0	0.9629574153809426	-0.34873829772301407	0.0	0.9385430133369871	-0.29193367949232113	0.0
